<?xml version="1.0" encoding="utf-8"?>
<!-- Generator: Adobe Illustrator 23.0.1, SVG Export Plug-In . SVG Version: 6.00 Build 0)  -->
<svg version="1.1" id="shapes" xmlns="http://www.w3.org/2000/svg" xmlns:xlink="http://www.w3.org/1999/xlink" x="0px" y="0px"
	 viewBox="0 0 1366 768" style="enable-background:new 0 0 1366 768;" xml:space="preserve">
<style type="text/css">
	.st0{opacity:0.35;fill:#39159A;}
	.st1{opacity:0.35;fill:#33CC99;}
	.st2{opacity:0.35;fill:none;stroke:#39159A;stroke-miterlimit:10;}
	.st3{opacity:0.35;fill:none;stroke:#33CC99;stroke-miterlimit:10;}
</style>
<rect x="768.76" y="35.76" transform="matrix(0.7071 -0.7071 0.7071 0.7071 198.1222 558.3093)" class="st0" width="8.49" height="8.49"/>
<rect x="431.76" y="552.76" transform="matrix(6.123234e-17 -1 1 6.123234e-17 -121 993)" class="st1" width="8.49" height="8.49"/>
<rect x="1300.76" y="456.76" transform="matrix(0.7071 -0.7071 0.7071 0.7071 56.2494 1057.7981)" class="st0" width="8.49" height="8.49"/>
<rect x="807.76" y="364.76" transform="matrix(-1 -1.224647e-16 1.224647e-16 -1 1624 738)" class="st2" width="8.49" height="8.49"/>
<rect x="337.76" y="125.76" transform="matrix(-1 -1.224647e-16 1.224647e-16 -1 684 260)" class="st2" width="8.49" height="8.49"/>
<rect x="13.76" y="482.76" transform="matrix(0.7071 -0.7071 0.7071 0.7071 -339.0889 155.3669)" class="st3" width="8.49" height="8.49"/>
<circle class="st2" cx="1117.5" cy="142.5" r="8"/>
<circle class="st1" cx="929.5" cy="527.5" r="8"/>
<circle class="st0" cx="1029.5" cy="319.5" r="8"/>
<circle class="st2" cx="231.5" cy="460.5" r="8"/>
<circle class="st3" cx="659.5" cy="180.5" r="8"/>
</svg>
